<svg width="146" height="50" viewBox="0 0 146 50" fill="none" xmlns="http://www.w3.org/2000/svg">
<path d="M7.60635 18H11.1628C11.8569 18 12.4248 18.5727 12.4248 19.2726L12.4782 42.003C12.4795 42.5544 12.9269 43.0007 13.4782 43.0007H103.407C103.963 43.0007 104.413 42.546 104.406 41.9892L104.362 38.1325C104.362 37.4326 104.821 36.8599 105.515 36.8599H109.116C109.81 36.8599 110.378 37.4326 110.378 38.1325L110.434 44C110.434 46.8156 108.178 49.0904 105.386 49.0904H11.5394C8.74715 49.0904 6.40009 46.8156 6.40009 44L6.34432 19.2726C6.34432 18.5727 6.91224 18 7.60635 18Z" fill="black"/>
<path d="M12.4712 13.6456H17.7702C18.2726 13.6456 18.5501 13.0041 18.2426 12.5625L9.84374 0.755756C9.78763 0.676086 9.71593 0.611653 9.63407 0.567341C9.55222 0.523029 9.46236 0.5 9.37131 0.5C9.28026 0.5 9.1904 0.523029 9.10854 0.567341C9.02669 0.611653 8.95499 0.676086 8.89887 0.755756L0.5 12.5708C0.192541 13.0041 0.470003 13.6456 0.972435 13.6456H6.37131L6.40009 35.8334C6.40009 36.2 6.67005 36.5 7.00001 36.5H11.9001C12.23 36.5 12.5 36.2 12.5 35.8334V21.7395L12.4712 13.6456Z" fill="black"/>
<path d="M16 17H22.25V28.125C22.25 29.8229 22.2917 31 22.375 31.6562C22.4792 32.4375 22.6198 33.0312 22.7969 33.4375C23.0157 34.0312 23.4271 34.4688 24.0313 34.75C24.6354 35.0729 25.3646 35.2344 26.2188 35.2344C27.0625 35.2344 27.7865 35.0729 28.3907 34.75C28.9427 34.4792 29.3594 34.0417 29.6407 33.4375C29.8073 33.0208 29.9427 32.4271 30.0469 31.6562C30.1407 31.0312 30.1875 29.8542 30.1875 28.125V17H36.3907V29.0938C36.3907 31.5729 36.2396 33.4167 35.9375 34.625C35.6563 35.8229 35.1459 36.849 34.4063 37.7031C33.5938 38.651 32.5157 39.3438 31.1719 39.7812C29.8386 40.25 28.1875 40.4844 26.2188 40.4844C24.2084 40.4844 22.5521 40.25 21.25 39.7812C19.9271 39.3438 18.849 38.651 18.0157 37.7031C17.2969 36.8698 16.7865 35.8438 16.4844 34.625C16.1615 33.3958 16 31.5521 16 29.0938V17Z" fill="black"/>
<path d="M46.9844 39.875H41.1407V17H47.6563C50.1875 17 51.9844 17.125 53.0469 17.375C54.0886 17.6458 54.9584 18.0729 55.6563 18.6562C56.4896 19.3542 57.1302 20.2188 57.5782 21.25C58.0261 22.3021 58.25 23.474 58.25 24.7656C58.25 26.1406 58.0261 27.3385 57.5782 28.3594C57.1823 29.3906 56.5417 30.2448 55.6563 30.9219C55.0209 31.4219 54.2552 31.7812 53.3594 32C52.5573 32.2188 51.1615 32.3281 49.1719 32.3281H46.9844V39.875ZM46.9844 27.2969H48.1719C49.6511 27.2969 50.6979 27.0833 51.3125 26.6562C51.9063 26.2604 52.2032 25.5677 52.2032 24.5781C52.2032 23.6302 51.9115 22.9531 51.3282 22.5469C50.7552 22.1302 49.724 21.9219 48.2344 21.9219H46.9844V27.2969Z" fill="black"/>
<path d="M64.7188 39.875V22.4062H59.5938V17H76.0782V22.4062H70.9532V39.875H64.7188Z" fill="black"/>
<path d="M78.9688 17H85.2188V28.125C85.2188 29.8229 85.2604 31 85.3438 31.6562C85.4479 32.4375 85.5886 33.0312 85.7657 33.4375C85.9844 34.0312 86.3959 34.4688 87 34.75C87.6042 35.0729 88.3334 35.2344 89.1875 35.2344C90.0313 35.2344 90.7552 35.0729 91.3594 34.75C91.9115 34.4792 92.3282 34.0417 92.6094 33.4375C92.7761 33.0208 92.9115 32.4271 93.0157 31.6562C93.1094 31.0312 93.1563 29.8542 93.1563 28.125V17H99.3594V29.0938C99.3594 31.5729 99.2084 33.4167 98.9063 34.625C98.625 35.8229 98.1146 36.849 97.375 37.7031C96.5625 38.651 95.4844 39.3438 94.1407 39.7812C92.8073 40.25 91.1563 40.4844 89.1875 40.4844C87.1771 40.4844 85.5209 40.25 84.2188 39.7812C82.8959 39.3438 81.8177 38.651 80.9844 37.7031C80.2657 36.8698 79.7552 35.8438 79.4532 34.625C79.1302 33.3958 78.9688 31.5521 78.9688 29.0938V17Z" fill="black"/>
<path d="M104.362 39.875V17H110.377L119.018 28.7656C119.237 29.0885 119.513 29.5729 119.846 30.2188C120.273 31.0521 120.69 31.9115 121.096 32.7969C120.94 31.599 120.851 30.7604 120.83 30.2812C120.768 29.5312 120.737 28.8698 120.737 28.2969V17H126.721V39.875H120.737L112.096 28.0625C111.971 27.8958 111.695 27.4062 111.268 26.5938C110.893 25.9271 110.476 25.0833 110.018 24.0625C110.122 24.875 110.221 25.7188 110.315 26.5938C110.356 27.5729 110.377 28.2344 110.377 28.5781V39.875H104.362Z" fill="black"/>
<path d="M131.391 39.875V17H145.406V22.0156H137.469V25.9844H144.953V30.8906H137.469V34.75H145.406V39.875H131.391Z" fill="black"/>
</svg>
