<svg width="146" height="49" viewBox="0 0 146 49" fill="none" xmlns="http://www.w3.org/2000/svg">
<path d="M7.23505 17.5H10.7915C11.4856 17.5 12.0535 18.0727 12.0535 18.7726L12.1069 41.503C12.1082 42.0544 12.5556 42.5007 13.1069 42.5007H103.035C103.592 42.5007 104.042 42.046 104.035 41.4892L103.991 37.6325C103.991 36.9326 104.45 36.3599 105.144 36.3599H108.745C109.439 36.3599 110.007 36.9326 110.007 37.6325L110.062 43.5C110.062 46.3156 107.807 48.5904 105.014 48.5904H11.1681C8.37584 48.5904 6.02878 46.3156 6.02878 43.5L5.97301 18.7726C5.97301 18.0727 6.54093 17.5 7.23505 17.5Z" fill="white"/>
<path d="M12.0999 13.1456H17.3989C17.9013 13.1456 18.1788 12.5041 17.8713 12.0625L9.47243 0.255756C9.41632 0.176086 9.34462 0.111653 9.26276 0.0673409C9.18091 0.0230291 9.09105 0 9 0C8.90895 0 8.81909 0.0230291 8.73724 0.0673409C8.65538 0.111653 8.58368 0.176086 8.52757 0.255756L0.128693 12.0708C-0.178766 12.5041 0.0986958 13.1456 0.601128 13.1456H6L6.02878 35.3334C6.02878 35.7 6.29875 36 6.6287 36H11.5288C11.8587 36 12.1287 35.7 12.1287 35.3334V21.2395L12.0999 13.1456Z" fill="white"/>
<path d="M15.6287 16.5H21.8787V27.625C21.8787 29.3229 21.9204 30.5 22.0037 31.1562C22.1079 31.9375 22.2485 32.5312 22.4256 32.9375C22.6443 33.5312 23.0558 33.9688 23.66 34.25C24.2641 34.5729 24.9933 34.7344 25.8475 34.7344C26.6912 34.7344 27.4152 34.5729 28.0193 34.25C28.5714 33.9792 28.9881 33.5417 29.2693 32.9375C29.436 32.5208 29.5714 31.9271 29.6756 31.1562C29.7693 30.5312 29.8162 29.3542 29.8162 27.625V16.5H36.0193V28.5938C36.0193 31.0729 35.8683 32.9167 35.5662 34.125C35.285 35.3229 34.7746 36.349 34.035 37.2031C33.2225 38.151 32.1443 38.8438 30.8006 39.2812C29.4673 39.75 27.8162 39.9844 25.8475 39.9844C23.8371 39.9844 22.1808 39.75 20.8787 39.2812C19.5558 38.8438 18.4777 38.151 17.6443 37.2031C16.9256 36.3698 16.4152 35.3438 16.1131 34.125C15.7902 32.8958 15.6287 31.0521 15.6287 28.5938V16.5Z" fill="white"/>
<path d="M46.6131 39.375H40.7693V16.5H47.285C49.8162 16.5 51.6131 16.625 52.6756 16.875C53.7173 17.1458 54.5871 17.5729 55.285 18.1562C56.1183 18.8542 56.7589 19.7188 57.2068 20.75C57.6548 21.8021 57.8787 22.974 57.8787 24.2656C57.8787 25.6406 57.6548 26.8385 57.2068 27.8594C56.811 28.8906 56.1704 29.7448 55.285 30.4219C54.6496 30.9219 53.8839 31.2812 52.9881 31.5C52.186 31.7188 50.7902 31.8281 48.8006 31.8281H46.6131V39.375ZM46.6131 26.7969H47.8006C49.2798 26.7969 50.3266 26.5833 50.9412 26.1562C51.535 25.7604 51.8318 25.0677 51.8318 24.0781C51.8318 23.1302 51.5402 22.4531 50.9568 22.0469C50.3839 21.6302 49.3527 21.4219 47.8631 21.4219H46.6131V26.7969Z" fill="white"/>
<path d="M64.3475 39.375V21.9062H59.2225V16.5H75.7068V21.9062H70.5818V39.375H64.3475Z" fill="white"/>
<path d="M78.5975 16.5H84.8475V27.625C84.8475 29.3229 84.8891 30.5 84.9725 31.1562C85.0766 31.9375 85.2173 32.5312 85.3943 32.9375C85.6131 33.5312 86.0246 33.9688 86.6287 34.25C87.2329 34.5729 87.9621 34.7344 88.8162 34.7344C89.66 34.7344 90.3839 34.5729 90.9881 34.25C91.5402 33.9792 91.9568 33.5417 92.2381 32.9375C92.4048 32.5208 92.5402 31.9271 92.6443 31.1562C92.7381 30.5312 92.785 29.3542 92.785 27.625V16.5H98.9881V28.5938C98.9881 31.0729 98.8371 32.9167 98.535 34.125C98.2537 35.3229 97.7433 36.349 97.0037 37.2031C96.1912 38.151 95.1131 38.8438 93.7693 39.2812C92.436 39.75 90.785 39.9844 88.8162 39.9844C86.8058 39.9844 85.1496 39.75 83.8475 39.2812C82.5246 38.8438 81.4464 38.151 80.6131 37.2031C79.8943 36.3698 79.3839 35.3438 79.0818 34.125C78.7589 32.8958 78.5975 31.0521 78.5975 28.5938V16.5Z" fill="white"/>
<path d="M103.99 39.375V16.5H110.006L118.646 28.2656C118.865 28.5885 119.141 29.0729 119.475 29.7188C119.902 30.5521 120.318 31.4115 120.725 32.2969C120.568 31.099 120.48 30.2604 120.459 29.7812C120.396 29.0312 120.365 28.3698 120.365 27.7969V16.5H126.35V39.375H120.365L111.725 27.5625C111.6 27.3958 111.324 26.9062 110.896 26.0938C110.521 25.4271 110.105 24.5833 109.646 23.5625C109.751 24.375 109.85 25.2188 109.943 26.0938C109.985 27.0729 110.006 27.7344 110.006 28.0781V39.375H103.99Z" fill="white"/>
<path d="M131.019 39.375V16.5H145.035V21.5156H137.097V25.4844H144.582V30.3906H137.097V34.25H145.035V39.375H131.019Z" fill="white"/>
</svg>
