<svg width="43" height="33" viewBox="0 0 43 33" fill="none" xmlns="http://www.w3.org/2000/svg">
<path d="M7.20627 17.1072H10.7627C11.4568 17.1072 12.0247 17.6798 12.0247 18.3798L12.0732 25.0247C12.0773 25.5742 12.5238 26.0174 13.0732 26.0174H30C30.5523 26.0174 31 25.5697 31 25.0174V21.1492H37L37.0156 27.0168C37.0156 29.8324 34.7597 32.1072 31.9675 32.1072H11.1393C8.34707 32.1072 6 29.8324 6 27.0168L5.94424 18.3798C5.94424 17.6798 6.51215 17.1072 7.20627 17.1072Z" fill="black"/>
<path d="M12.0999 13.1456H17.3989C17.9013 13.1456 18.1788 12.5041 17.8713 12.0625L9.47243 0.255756C9.41632 0.176086 9.34462 0.111653 9.26276 0.0673409C9.18091 0.0230291 9.09105 0 9 0C8.90895 0 8.81909 0.0230291 8.73724 0.0673409C8.65538 0.111653 8.58368 0.176086 8.52757 0.255756L0.128693 12.0708C-0.178766 12.5041 0.0986958 13.1456 0.601128 13.1456H6V25.243C6 25.6096 6.26997 25.9096 6.59992 25.9096H11.5C11.83 25.9096 12.0999 25.6096 12.0999 25.243V27.2395V13.1456Z" fill="black"/>
<path d="M31 21.875L30.9792 13.9974C30.9777 13.4461 30.5305 13 29.9792 13H26.6406C26.0883 13 25.6406 12.5523 25.6406 12V8.59375C25.6406 8.04147 26.0883 7.59375 26.6406 7.59375H41.125C41.6773 7.59375 42.125 8.04147 42.125 8.59375V12C42.125 12.5523 41.6773 13 41.125 13H38C37.4477 13 37 13.4477 37 14V21.875H31Z" fill="black"/>
</svg>
