<svg width="43" height="33" viewBox="0 0 43 33" fill="none" xmlns="http://www.w3.org/2000/svg">
<path d="M7.20628 17.6072H10.7627C11.4568 17.6072 12.0247 18.1798 12.0247 18.8798L12.0733 25.5247C12.0773 26.0742 12.5238 26.5174 13.0732 26.5174H30C30.5523 26.5174 31 26.0697 31 25.5174V21.6492H37L37.0156 27.5168C37.0156 30.3324 34.7598 32.6072 31.9675 32.6072H11.1393C8.34707 32.6072 6.00001 30.3324 6.00001 27.5168L5.94424 18.8798C5.94424 18.1798 6.51216 17.6072 7.20628 17.6072Z" fill="white"/>
<path d="M12.0999 13.6456H17.3989C17.9013 13.6456 18.1788 13.0041 17.8713 12.5625L9.47244 0.755756C9.41633 0.676086 9.34463 0.611653 9.26277 0.567341C9.18092 0.523029 9.09106 0.5 9.00001 0.5C8.90896 0.5 8.8191 0.523029 8.73724 0.567341C8.65539 0.611653 8.58369 0.676086 8.52757 0.755756L0.1287 12.5708C-0.178759 13.0041 0.0987034 13.6456 0.601135 13.6456H6.00001V25.743C6.00001 26.1096 6.26997 26.4096 6.59993 26.4096H11.5C11.83 26.4096 12.0999 26.1096 12.0999 25.743V27.7395V13.6456Z" fill="white"/>
<path d="M31 22.375L30.9792 14.4974C30.9777 13.9461 30.5305 13.5 29.9792 13.5H26.6406C26.0883 13.5 25.6406 13.0523 25.6406 12.5V9.09375C25.6406 8.54147 26.0883 8.09375 26.6406 8.09375H41.125C41.6773 8.09375 42.125 8.54147 42.125 9.09375V12.5C42.125 13.0523 41.6773 13.5 41.125 13.5H38C37.4477 13.5 37 13.9477 37 14.5V22.375H31Z" fill="white"/>
</svg>
